<?xml version="1.0" encoding="UTF-8" standalone="no"?>
<svg
   height="79.478844"
   width="274.44012"
   enable-background="new 0 0 325 84.2"
   version="1.1"
   viewBox="0 0 274.44013 79.478847"
   xml:space="preserve"
   id="svg126"
   sodipodi:docname="logob.svg"
   inkscape:version="1.4 (86a8ad7, 2024-10-11)"
   xmlns:inkscape="http://www.inkscape.org/namespaces/inkscape"
   xmlns:sodipodi="http://sodipodi.sourceforge.net/DTD/sodipodi-0.dtd"
   xmlns="http://www.w3.org/2000/svg"
   xmlns:svg="http://www.w3.org/2000/svg"
   xmlns:rdf="http://www.w3.org/1999/02/22-rdf-syntax-ns#"
   xmlns:cc="http://creativecommons.org/ns#"
   xmlns:dc="http://purl.org/dc/elements/1.1/"><sodipodi:namedview
     id="namedview1"
     pagecolor="#505050"
     bordercolor="#eeeeee"
     borderopacity="1"
     inkscape:showpageshadow="0"
     inkscape:pageopacity="0"
     inkscape:pagecheckerboard="0"
     inkscape:deskcolor="#505050"
     inkscape:zoom="3.1081461"
     inkscape:cx="137.22006"
     inkscape:cy="39.734297"
     inkscape:window-width="1366"
     inkscape:window-height="697"
     inkscape:window-x="-8"
     inkscape:window-y="-4"
     inkscape:window-maximized="1"
     inkscape:current-layer="svg126" /><metadata
     id="metadata132"><rdf:RDF><cc:Work
         rdf:about=""><dc:format>image/svg+xml</dc:format><dc:type
           rdf:resource="http://purl.org/dc/dcmitype/StillImage" /></cc:Work></rdf:RDF></metadata><defs
     id="defs130" /><style
     type="text/css"
     id="style2">
	.st0{fill:#FFCC00;}
	.st1{fill:none;stroke:#000000;}
	.st2{fill:#DB0000;}
</style><g
     style="stroke-width:0.95731002"
     id="g24"><path
       d="m 0.97089,0 h 89.613 c 0.48544,0 0.97089,0.37757 0.97089,0.94392 v 77.591 c 0,0.47196 -0.38836,0.94392 -0.97089,0.94392 H 0.97089 C 0.48544,79.47884 0,79.10127 0,78.53492 V 0.94392 C 0,0.37757 0.48545,0 0.97089,0"
       id="path4" /><path
       style="fill:#ffcc00"
       class="st0"
       d="m 4.2719,3.3981 h 83.011 c 0.48544,0 0.8738,0.37757 0.8738,0.84953 v 71.266 c 0,0.47196 -0.38836,0.84953 -0.8738,0.84953 H 4.2719 c -0.48545,0 -0.8738,-0.37757 -0.8738,-0.84953 v -71.266 c 0,-0.47196 0.38836,-0.84953 0.8738,-0.84953"
       id="path6" /><path
       d="M 37.962,38.04 C 38.73871,31.7157 41.0688,23.504 43.0106,19.445 38.8358,12.1768 33.4959,7.929 26.7966,7.74 14.3696,8.8727 9.5146,23.881 6.9906,38.04 Z"
       id="path8" /><path
       style="fill:none;stroke:#000000"
       class="st1"
       d="M 37.962,38.04 C 38.73871,31.7157 41.0688,23.504 43.0106,19.445 38.8358,12.1768 33.4959,7.929 26.7966,7.74 14.3696,8.8727 9.5146,23.881 6.9906,38.04 Z"
       id="path10" /><path
       d="m 6.9904,47.007 30.971,0.09439 c 0.67962,4.814 2.6214,9.1561 4.6603,12.932 -3.301,5.6636 -7.3788,10.478 -15.923,11.233 -14.466,-1.1327 -18.059,-14.536 -19.709,-24.259"
       id="path12" /><path
       style="fill:none;stroke:#000000"
       class="st1"
       d="m 6.9904,47.007 30.971,0.09439 c 0.67962,4.814 2.6214,9.1561 4.6603,12.932 -3.301,5.6636 -7.3788,10.478 -15.923,11.233 -14.466,-1.1327 -18.059,-14.536 -19.709,-24.259 z"
       id="path14" /><path
       d="M 43.496,50.972 64.661,37.946 85.826,50.972 h -5.6312 c -3.0098,9.7224 -6.505,19.256 -19.806,20.766 l -28.641,-0.18878 c 9.6118,-1.6991 18.835,-20.011 17.476,-20.672 -0.19418,0.18878 -5.7283,0.09439 -5.7283,0.09439"
       id="path16" /><path
       style="fill:none;stroke:#000000"
       class="st1"
       d="M 43.496,50.972 64.661,37.946 85.826,50.972 h -5.6312 c -3.0098,9.7224 -6.505,19.256 -19.806,20.766 l -28.641,-0.18878 c 9.6118,-1.6991 18.835,-20.011 17.476,-20.672 -0.19418,0.18878 -5.7283,0.09439 -5.7283,0.09439 z"
       id="path18" /><path
       d="M 48.447,28.412 H 80.875 C 78.5449,20.0111 73.1079,9.156 61.846,7.834 H 32.525 c 7.2817,2.5486 13.884,10.95 15.923,20.578"
       id="path20" /><path
       style="fill:none;stroke:#000000"
       class="st1"
       d="M 48.447,28.412 H 80.875 C 78.5449,20.0111 73.1079,9.156 61.846,7.834 H 32.525 c 7.2817,2.5486 13.884,10.95 15.923,20.578 z"
       id="path22" /></g><g
     style="fill:#db0000"
     transform="matrix(0.97213301,0,0,0.94512848,-2.1275977,-4.5502879e-4)"
     id="g46"><g
       id="text132"
       style="font-style:normal;font-weight:normal;font-size:41.6745px;line-height:1.25;font-family:sans-serif;letter-spacing:0px;word-spacing:0px;fill:#db0000;fill-opacity:1;stroke:none;stroke-width:1.04186"
       transform="scale(0.98601282,1.0141856)"
       aria-label="Carreteras"><path
         id="path4604"
         style="font-style:normal;font-variant:normal;font-weight:normal;font-stretch:normal;font-family:Impact;-inkscape-font-specification:Impact;fill:#db0000;fill-opacity:1;stroke-width:1.04186"
         d="m 124.35542,15.429436 h -8.56688 V 9.6910507 q 0,-2.5029125 -0.28489,-3.113379 -0.26453,-0.6308153 -1.20058,-0.6308153 -1.05814,0 -1.34303,0.7529086 -0.28488,0.7529087 -0.28488,3.2558212 V 25.257946 q 0,2.401168 0.28488,3.133728 0.28489,0.732559 1.28198,0.732559 0.9564,0 1.24128,-0.732559 0.30524,-0.73256 0.30524,-3.438962 v -4.130823 h 8.56688 v 1.28198 q 0,5.107569 -0.73256,7.244202 -0.71222,2.136633 -3.19478,3.744194 -2.46221,1.607562 -6.08431,1.607562 -3.76455,0 -6.20641,-1.363375 -2.44187,-1.363375 -3.23548,-3.764543 -0.7936,-2.421517 -0.7936,-7.264551 v -9.625022 q 0,-3.561054 0.24418,-5.3314067 0.24419,-1.7907017 1.44477,-3.4389611 1.22094,-1.6482595 3.35757,-2.5843081 2.15698,-0.95639746 4.94478,-0.95639746 3.78489,0 6.24711,1.46511956 2.46221,1.4651195 3.23547,3.6627988 0.77326,2.1773304 0.77326,6.796527 z" /><path
         id="path4606"
         style="font-style:normal;font-variant:normal;font-weight:normal;font-stretch:normal;font-family:Impact;-inkscape-font-specification:Impact;fill:#db0000;fill-opacity:1;stroke-width:1.04186"
         d="m 134.57056,17.464324 h -7.71223 v -1.811051 q 0,-3.133728 0.71221,-4.822685 0.73256,-1.709306 2.90989,-3.0116344 2.17733,-1.3023285 5.65699,-1.3023285 4.17152,0 6.2878,1.4854684 2.11629,1.4651195 2.54361,3.6221015 0.42733,2.136632 0.42733,8.831414 v 13.552356 h -7.99711 v -2.401168 q -0.75291,1.444771 -1.95349,2.17733 -1.18024,0.712211 -2.8285,0.712211 -2.15698,0 -3.96803,-1.200584 -1.7907,-1.220933 -1.7907,-5.311058 v -2.218028 q 0,-3.031984 0.9564,-4.130823 0.95639,-1.09884 4.74129,-2.56396 4.04942,-1.587212 4.33431,-2.136632 0.28488,-0.54942 0.28488,-2.238377 0,-2.116284 -0.32558,-2.747099 -0.30523,-0.651165 -1.03779,-0.651165 -0.83431,0 -1.0378,0.54942 -0.20348,0.529071 -0.20348,2.787797 z m 2.60465,3.703496 q -1.97384,1.444771 -2.29942,2.421517 -0.30523,0.976747 -0.30523,2.808146 0,2.095935 0.26453,2.706401 0.28488,0.610467 1.09884,0.610467 0.77326,0 0.9971,-0.468024 0.24418,-0.488374 0.24418,-2.523262 z" /><path
         id="path4608"
         style="font-style:normal;font-variant:normal;font-weight:normal;font-stretch:normal;font-family:Impact;-inkscape-font-specification:Impact;fill:#db0000;fill-opacity:1;stroke-width:1.04186"
         d="m 156.4456,7.0049983 -0.32558,3.5407057 q 1.7907,-3.8052412 5.18897,-4.0290789 v 9.5029279 q -2.25873,0 -3.31687,0.610467 -1.05814,0.610466 -1.30233,1.709306 -0.24419,1.07849 -0.24419,5.005825 v 10.662814 h -8.22094 V 7.0049983 Z" /><path
         id="path4610"
         style="font-style:normal;font-variant:normal;font-weight:normal;font-stretch:normal;font-family:Impact;-inkscape-font-specification:Impact;fill:#db0000;fill-opacity:1;stroke-width:1.04186"
         d="m 171.34098,7.0049983 -0.32558,3.5407057 q 1.7907,-3.8052412 5.18897,-4.0290789 v 9.5029279 q -2.25873,0 -3.31687,0.610467 -1.05814,0.610466 -1.30233,1.709306 -0.24419,1.07849 -0.24419,5.005825 v 10.662814 h -8.22095 V 7.0049983 Z" /><path
         id="path4612"
         style="font-style:normal;font-variant:normal;font-weight:normal;font-stretch:normal;font-family:Impact;-inkscape-font-specification:Impact;fill:#db0000;fill-opacity:1;stroke-width:1.04186"
         d="m 196.63465,20.98468 h -10.64247 v 5.84013 q 0,1.831399 0.26454,2.36047 0.26453,0.529071 1.01744,0.529071 0.93605,0 1.24128,-0.691862 0.32559,-0.712211 0.32559,-2.72675 v -3.561055 h 7.79362 v 1.994191 q 0,2.502912 -0.32558,3.845939 -0.30524,1.343026 -1.46512,2.869192 -1.15989,1.526166 -2.95059,2.299424 -1.77035,0.752908 -4.45641,0.752908 -2.60465,0 -4.59884,-0.752908 -1.9942,-0.752909 -3.11338,-2.055237 -1.09884,-1.322678 -1.52617,-2.889542 -0.42733,-1.587213 -0.42733,-4.598847 v -7.875018 q 0,-3.540705 0.9564,-5.575593 0.9564,-2.0552375 3.13373,-3.1337283 2.17733,-1.0988396 5.00582,-1.0988396 3.45931,0 5.69769,1.3226773 2.25873,1.3023285 3.15408,3.4796586 0.9157,2.156982 0.9157,6.084316 z m -8.2413,-4.395358 V 14.61548 q 0,-2.095935 -0.22384,-2.706401 -0.22384,-0.610467 -0.9157,-0.610467 -0.85465,0 -1.05814,0.529071 -0.20349,0.508722 -0.20349,2.787797 v 1.973842 z" /><path
         id="path4614"
         style="font-style:normal;font-variant:normal;font-weight:normal;font-stretch:normal;font-family:Impact;-inkscape-font-specification:Impact;fill:#db0000;fill-opacity:1;stroke-width:1.04186"
         d="m 208.00967,3.4032461 v 4.2529164 h 2.21803 v 4.2732655 h -2.21803 v 14.447706 q 0,2.665704 0.26454,2.970937 0.28488,0.305233 2.29942,0.305233 v 4.354661 h -3.31686 q -2.80815,0 -4.00873,-0.223838 -1.20059,-0.244186 -2.11629,-1.07849 -0.9157,-0.854653 -1.13954,-1.933144 -0.22383,-1.09884 -0.22383,-5.127919 V 11.929428 h -1.77036 V 7.6561625 h 1.77036 V 3.4032461 Z" /><path
         id="path4616"
         style="font-style:normal;font-variant:normal;font-weight:normal;font-stretch:normal;font-family:Impact;-inkscape-font-specification:Impact;fill:#db0000;fill-opacity:1;stroke-width:1.04186"
         d="m 230.65798,20.98468 h -10.64247 v 5.84013 q 0,1.831399 0.26454,2.36047 0.26453,0.529071 1.01744,0.529071 0.93605,0 1.24128,-0.691862 0.32559,-0.712211 0.32559,-2.72675 v -3.561055 h 7.79362 v 1.994191 q 0,2.502912 -0.32558,3.845939 -0.30524,1.343026 -1.46512,2.869192 -1.15989,1.526166 -2.95059,2.299424 -1.77035,0.752908 -4.45641,0.752908 -2.60465,0 -4.59884,-0.752908 -1.99419,-0.752909 -3.11338,-2.055237 -1.09884,-1.322678 -1.52617,-2.889542 -0.42733,-1.587213 -0.42733,-4.598847 v -7.875018 q 0,-3.540705 0.9564,-5.575593 0.9564,-2.0552375 3.13373,-3.1337283 2.17733,-1.0988396 5.00582,-1.0988396 3.45931,0 5.69769,1.3226773 2.25873,1.3023285 3.15408,3.4796586 0.9157,2.156982 0.9157,6.084316 z m -8.2413,-4.395358 V 14.61548 q 0,-2.095935 -0.22384,-2.706401 -0.22383,-0.610467 -0.9157,-0.610467 -0.85465,0 -1.05814,0.529071 -0.20349,0.508722 -0.20349,2.787797 v 1.973842 z" /><path
         id="path4618"
         style="font-style:normal;font-variant:normal;font-weight:normal;font-stretch:normal;font-family:Impact;-inkscape-font-specification:Impact;fill:#db0000;fill-opacity:1;stroke-width:1.04186"
         d="m 241.58533,7.0049983 -0.32558,3.5407057 q 1.7907,-3.8052412 5.18896,-4.0290789 v 9.5029279 q -2.25872,0 -3.31687,0.610467 -1.05814,0.610466 -1.30232,1.709306 -0.24419,1.07849 -0.24419,5.005825 v 10.662814 h -8.22095 V 7.0049983 Z" /><path
         id="path4620"
         style="font-style:normal;font-variant:normal;font-weight:normal;font-stretch:normal;font-family:Impact;-inkscape-font-specification:Impact;fill:#db0000;fill-opacity:1;stroke-width:1.04186"
         d="m 255.60571,17.464324 h -7.71222 v -1.811051 q 0,-3.133728 0.71221,-4.822685 0.73256,-1.709306 2.90989,-3.0116344 2.17733,-1.3023285 5.65699,-1.3023285 4.17152,0 6.2878,1.4854684 2.11629,1.4651195 2.54361,3.6221015 0.42733,2.136632 0.42733,8.831414 v 13.552356 h -7.99711 v -2.401168 q -0.75291,1.444771 -1.95349,2.17733 -1.18024,0.712211 -2.8285,0.712211 -2.15698,0 -3.96803,-1.200584 -1.7907,-1.220933 -1.7907,-5.311058 v -2.218028 q 0,-3.031984 0.95639,-4.130823 0.9564,-1.09884 4.74129,-2.56396 4.04943,-1.587212 4.33432,-2.136632 0.28488,-0.54942 0.28488,-2.238377 0,-2.116284 -0.32558,-2.747099 -0.30524,-0.651165 -1.03779,-0.651165 -0.83431,0 -1.0378,0.54942 -0.20349,0.529071 -0.20349,2.787797 z m 2.60466,3.703496 q -1.97384,1.444771 -2.29942,2.421517 -0.30524,0.976747 -0.30524,2.808146 0,2.095935 0.26454,2.706401 0.28488,0.610467 1.09884,0.610467 0.77326,0 0.99709,-0.468024 0.24419,-0.488374 0.24419,-2.523262 z" /><path
         id="path4622"
         style="font-style:normal;font-variant:normal;font-weight:normal;font-stretch:normal;font-family:Impact;-inkscape-font-specification:Impact;fill:#db0000;fill-opacity:1;stroke-width:1.04186"
         d="m 286.04763,15.632924 h -7.2849 v -1.465119 q 0,-1.872097 -0.22384,-2.360471 -0.20349,-0.508722 -1.05814,-0.508722 -0.69187,0 -1.0378,0.468025 -0.34593,0.447675 -0.34593,1.363375 0,1.241282 0.16279,1.831399 0.18314,0.569769 1.0378,1.261631 0.875,0.691862 3.56105,2.014539 3.5814,1.750004 4.70059,3.296519 1.11919,1.546515 1.11919,4.497103 0,3.296519 -0.85465,4.985476 -0.85466,1.668609 -2.86919,2.584308 -1.9942,0.895351 -4.82269,0.895351 -3.13373,0 -5.3721,-0.976746 -2.21803,-0.976746 -3.05234,-2.645355 -0.8343,-1.668608 -0.8343,-5.046523 v -1.302328 h 7.2849 v 1.709306 q 0,2.17733 0.26453,2.828495 0.28489,0.651164 1.09884,0.651164 0.87501,0 1.22094,-0.427327 0.34593,-0.447675 0.34593,-1.851748 0,-1.933144 -0.44768,-2.421517 -0.46802,-0.488373 -4.78199,-2.889541 -3.6221,-2.034888 -4.4157,-3.683148 -0.79361,-1.668608 -0.79361,-3.947683 0,-3.235472 0.85465,-4.7616385 0.85466,-1.5465151 2.88955,-2.3808192 2.05523,-0.8343042 4.76163,-0.8343042 2.68606,0 4.55815,0.691862 1.89245,0.6715131 2.88954,1.7907016 1.01745,1.1191883 1.22094,2.0755863 0.22384,0.956397 0.22384,2.991285 z" /></g><g
       id="text136"
       style="font-style:normal;font-weight:normal;font-size:31.9331px;line-height:1.25;font-family:sans-serif;letter-spacing:0px;word-spacing:0px;fill:#db0000;fill-opacity:1;stroke:none;stroke-width:0.798328"
       transform="matrix(0.98601282,0,0,1.0141856,0,2.1188236)"
       aria-label="2000 S.A."><path
         id="path4587"
         style="font-style:normal;font-variant:normal;font-weight:normal;font-stretch:normal;font-family:Impact;-inkscape-font-specification:Impact;fill:#db0000;fill-opacity:1;stroke-width:0.798328"
         d="m 122.63172,58.327168 v 4.303485 h -13.86159 v -3.60183 q 6.15898,-10.07265 7.31281,-12.458278 1.16942,-2.40122 1.16942,-3.742162 0,-1.029094 -0.35862,-1.528049 -0.34303,-0.514547 -1.06028,-0.514547 -0.71725,0 -1.07587,0.561324 -0.34303,0.561324 -0.34303,2.229705 v 2.40122 h -5.64443 v -0.919948 q 0,-2.120558 0.2183,-3.336761 0.21829,-1.231794 1.07587,-2.416812 0.85758,-1.185018 2.2297,-1.793119 1.37213,-0.608101 3.28998,-0.608101 3.75776,0 5.67562,1.87108 1.93345,1.855489 1.93345,4.708887 0,2.167335 -1.09147,4.584147 -1.07587,2.416813 -6.37726,10.259759 z" /><path
         id="path4589"
         style="font-style:normal;font-variant:normal;font-weight:normal;font-stretch:normal;font-family:Impact;-inkscape-font-specification:Impact;fill:#db0000;fill-opacity:1;stroke-width:0.798328"
         d="m 139.93922,45.931259 v 8.419863 q 0,2.86899 -0.31185,4.178746 -0.31185,1.309757 -1.29416,2.447997 -0.98232,1.138241 -2.37004,1.637196 -1.38772,0.498955 -3.10287,0.498955 -2.26089,0 -3.75776,-0.514547 -1.49686,-0.53014 -2.38562,-1.637196 -0.88877,-1.107056 -1.26298,-2.323258 -0.37422,-1.231795 -0.37422,-3.898085 v -8.809671 q 0,-3.477092 0.59251,-5.207841 0.6081,-1.73075 2.38563,-2.775436 1.79312,-1.044687 4.33467,-1.044687 2.07378,0 3.71097,0.73284 1.6372,0.717247 2.448,1.761934 0.8108,1.044687 1.09146,2.354443 0.29626,1.309757 0.29626,4.178747 z m -6.29931,-2.120558 q 0,-2.011412 -0.2027,-2.510367 -0.1871,-0.514547 -0.90435,-0.514547 -0.70166,0 -0.93554,0.545732 -0.2183,0.530139 -0.2183,2.479182 v 12.317947 q 0,2.19852 0.2027,2.650698 0.2183,0.452178 0.91995,0.452178 0.70166,0 0.91995,-0.53014 0.21829,-0.530139 0.21829,-2.385628 z" /><path
         id="path4591"
         style="font-style:normal;font-variant:normal;font-weight:normal;font-stretch:normal;font-family:Impact;-inkscape-font-specification:Impact;fill:#db0000;fill-opacity:1;stroke-width:0.798328"
         d="m 157.09079,45.931259 v 8.419863 q 0,2.86899 -0.31185,4.178746 -0.31184,1.309757 -1.29416,2.447997 -0.98232,1.138241 -2.37004,1.637196 -1.38771,0.498955 -3.10287,0.498955 -2.26089,0 -3.75776,-0.514547 -1.49686,-0.53014 -2.38562,-1.637196 -0.88877,-1.107056 -1.26298,-2.323258 -0.37422,-1.231795 -0.37422,-3.898085 v -8.809671 q 0,-3.477092 0.59251,-5.207841 0.6081,-1.73075 2.38563,-2.775436 1.79312,-1.044687 4.33467,-1.044687 2.07378,0 3.71097,0.73284 1.6372,0.717247 2.448,1.761934 0.8108,1.044687 1.09147,2.354443 0.29625,1.309757 0.29625,4.178747 z m -6.29931,-2.120558 q 0,-2.011412 -0.2027,-2.510367 -0.1871,-0.514547 -0.90435,-0.514547 -0.70166,0 -0.93554,0.545732 -0.21829,0.530139 -0.21829,2.479182 v 12.317947 q 0,2.19852 0.2027,2.650698 0.21829,0.452178 0.91994,0.452178 0.70166,0 0.91995,-0.53014 0.21829,-0.530139 0.21829,-2.385628 z" /><path
         id="path4593"
         style="font-style:normal;font-variant:normal;font-weight:normal;font-stretch:normal;font-family:Impact;-inkscape-font-specification:Impact;fill:#db0000;fill-opacity:1;stroke-width:0.798328"
         d="m 174.24236,45.931259 v 8.419863 q 0,2.86899 -0.31184,4.178746 -0.31185,1.309757 -1.29417,2.447997 -0.98232,1.138241 -2.37003,1.637196 -1.38772,0.498955 -3.10288,0.498955 -2.26089,0 -3.75775,-0.514547 -1.49687,-0.53014 -2.38563,-1.637196 -0.88876,-1.107056 -1.26298,-2.323258 -0.37422,-1.231795 -0.37422,-3.898085 v -8.809671 q 0,-3.477092 0.59251,-5.207841 0.6081,-1.73075 2.38563,-2.775436 1.79312,-1.044687 4.33467,-1.044687 2.07378,0 3.71098,0.73284 1.63719,0.717247 2.44799,1.761934 0.81081,1.044687 1.09147,2.354443 0.29625,1.309757 0.29625,4.178747 z m -6.2993,-2.120558 q 0,-2.011412 -0.2027,-2.510367 -0.18711,-0.514547 -0.90436,-0.514547 -0.70165,0 -0.93554,0.545732 -0.21829,0.530139 -0.21829,2.479182 v 12.317947 q 0,2.19852 0.2027,2.650698 0.21829,0.452178 0.91995,0.452178 0.70165,0 0.91995,-0.53014 0.21829,-0.530139 0.21829,-2.385628 z" /><path
         id="path4595"
         style="font-style:normal;font-variant:normal;font-weight:normal;font-stretch:normal;font-family:Impact;-inkscape-font-specification:Impact;fill:#db0000;fill-opacity:1;stroke-width:0.798328"
         d="m 196.24315,45.026903 h -6.0966 v -1.87108 q 0,-1.309757 -0.23389,-1.668381 -0.23388,-0.358623 -0.77961,-0.358623 -0.59251,0 -0.90436,0.483362 -0.29625,0.483363 -0.29625,1.46568 0,1.262979 0.34303,1.902265 0.32744,0.639286 1.85549,1.543642 4.38144,2.60392 5.51969,4.2723 1.13824,1.668381 1.13824,5.379357 0,2.697475 -0.63929,3.976047 -0.62369,1.278571 -2.4324,2.151742 -1.80872,0.857579 -4.20994,0.857579 -2.6351,0 -4.50618,-0.99791 -1.85549,-0.997909 -2.43241,-2.541551 -0.57691,-1.543641 -0.57691,-4.381447 v -1.652788 h 6.0966 v 3.071691 q 0,1.418903 0.24948,1.824303 0.26507,0.405401 0.91995,0.405401 0.65487,0 0.96672,-0.514547 0.32744,-0.514547 0.32744,-1.528049 0,-2.229705 -0.6081,-2.915768 -0.62369,-0.686062 -3.07169,-2.292073 -2.448,-1.621603 -3.24321,-2.354443 -0.79521,-0.73284 -1.32535,-2.027004 -0.51454,-1.294164 -0.51454,-3.305576 0,-2.900175 0.73284,-4.241116 0.74843,-1.340941 2.40122,-2.089374 1.65278,-0.764024 3.99164,-0.764024 2.55714,0 4.35026,0.826394 1.80871,0.826394 2.38563,2.089373 0.5925,1.247387 0.5925,4.256709 z" /><path
         id="path4597"
         style="font-style:normal;font-variant:normal;font-weight:normal;font-stretch:normal;font-family:Impact;-inkscape-font-specification:Impact;fill:#db0000;fill-opacity:1;stroke-width:0.798328"
         d="m 202.8699,57.485182 v 5.145471 h -4.75567 v -5.145471 z" /><path
         id="path4599"
         style="font-style:normal;font-variant:normal;font-weight:normal;font-stretch:normal;font-family:Impact;-inkscape-font-specification:Impact;fill:#db0000;fill-opacity:1;stroke-width:0.798328"
         d="m 216.12338,37.386657 3.75776,25.243996 h -6.7203 l -0.32744,-4.53737 h -2.35444 l -0.38981,4.53737 h -6.79826 l 3.33676,-25.243996 z m -3.47709,16.231625 q -0.49895,-4.287893 -0.99791,-10.587198 -0.99791,7.234845 -1.24738,10.587198 z" /><path
         id="path4601"
         style="font-style:normal;font-variant:normal;font-weight:normal;font-stretch:normal;font-family:Impact;-inkscape-font-specification:Impact;fill:#db0000;fill-opacity:1;stroke-width:0.798328"
         d="m 225.78284,57.485182 v 5.145471 h -4.75566 v -5.145471 z" /></g></g><g
     id="g4001"
     transform="matrix(1.0528445,0,0,1.0354141,-10.238831,-2.788885)"><path
       style="fill:#000000;stroke-width:0.95731"
       id="path48"
       d="m 105.53574,72.965016 -1.55342,-3.020544 c -0.0971,-0.283176 -0.29127,-0.566352 -0.38836,-0.94392 h -0.0971 c 0,0.377568 0.0971,0.660744 0.0971,0.94392 v 6.041088 c 0,0.188784 -0.19417,0.283176 -0.48544,0.283176 h -0.19418 c -0.38836,0 -0.48545,-0.09439 -0.48545,-0.283176 v -8.589672 c 0,-0.188784 0.19418,-0.283176 0.48545,-0.283176 h 0.29127 c 0.29126,0 0.38835,0.09439 0.48544,0.283176 l 2.13596,4.153248 c 0.0971,0.188784 0.19418,0.377568 0.19418,0.660744 0,-0.188784 0.0971,-0.47196 0.19418,-0.660744 l 2.13595,-4.153248 c 0.0971,-0.188784 0.29127,-0.283176 0.48545,-0.283176 h 0.29127 c 0.38835,0 0.48544,0.09439 0.48544,0.283176 v 8.589672 c 0,0.188784 -0.19418,0.283176 -0.48544,0.283176 h -0.19418 c -0.38836,0 -0.48545,-0.09439 -0.48545,-0.283176 v -6.041088 c 0,-0.283176 0,-0.566352 0.0971,-0.94392 h -0.0971 c -0.0971,0.377568 -0.29126,0.660744 -0.38835,0.94392 l -1.55343,3.020544 c -0.0971,0.09439 -0.19417,0.188784 -0.29126,0.188784 h -0.48545 l -0.19418,-0.188784"
       class="st2" /><path
       style="fill:#000000;stroke-width:0.95731"
       id="path50"
       d="m 111.74944,76.174344 c -0.0971,-0.09439 -0.0971,-0.188784 -0.0971,-0.283176 V 67.49028 c 0,-0.09439 0,-0.283176 0.0971,-0.283176 0.0971,-0.09439 0.19418,-0.09439 0.29127,-0.09439 h 3.88356 c 0.19417,0 0.29126,0.09439 0.29126,0.377568 v 0.188784 c 0,0.283176 -0.0971,0.377568 -0.29126,0.377568 h -3.00976 v 3.020544 h 2.71849 c 0.19418,0 0.29127,0.09439 0.29127,0.377568 v 0.188784 c 0,0.283176 -0.0971,0.377568 -0.29127,0.377568 h -2.71849 v 3.209328 h 3.00976 c 0.0971,0 0.19417,0 0.19417,0.09439 0,0.09439 0.0971,0.188784 0.0971,0.283176 v 0.188784 c 0,0.09439 0,0.283176 -0.0971,0.283176 -0.0971,0 -0.0971,0.09439 -0.19417,0.09439 h -3.88356 c -0.0971,0.09439 -0.19418,0.09439 -0.29127,0"
       class="st2" /><path
       style="fill:#000000;stroke-width:0.95731"
       id="path52"
       d="m 117.3806,75.98556 c -0.0971,-0.188784 -0.0971,-0.283176 -0.0971,-0.47196 v -0.188784 l 4.36901,-7.362576 h -3.78647 c -0.0971,0 -0.19418,0 -0.19418,-0.09439 0,-0.09439 -0.0971,-0.188784 -0.0971,-0.377568 v -0.09439 c 0,-0.188784 0,-0.283176 0.0971,-0.377568 0,-0.09439 0.0971,-0.09439 0.19418,-0.09439 h 4.95154 c 0.0971,0 0.0971,0.09439 0.19417,0.283176 0.0971,0.188784 0.0971,0.283176 0.0971,0.47196 v 0.283176 l -4.369,7.362576 h 4.07774 c 0.19417,0 0.29126,0.188784 0.29126,0.47196 v 0.09439 c 0,0.283176 -0.0971,0.47196 -0.29126,0.47196 h -5.14572 c -0.0971,-0.09439 -0.19418,-0.188784 -0.29127,-0.377568"
       class="st2" /><path
       style="fill:#000000;stroke-width:0.95731"
       id="path54"
       d="m 125.14772,75.230424 c -0.58253,-0.755136 -0.8738,-1.982232 -0.8738,-3.586896 0,-1.604664 0.29127,-2.737368 0.8738,-3.586896 0.58254,-0.755136 1.45634,-1.132704 2.71849,-1.132704 0.29127,0 0.48545,0 0.77672,0.09439 0.29126,0 0.48544,0.09439 0.58253,0.188784 0.0971,0 0.19418,0.09439 0.19418,0.09439 v 0.188784 c 0,0.188784 0,0.283176 -0.0971,0.47196 -0.0971,0.188784 -0.19418,0.283176 -0.29127,0.188784 -0.38836,-0.188784 -0.77671,-0.283176 -1.16507,-0.283176 -0.77671,0 -1.35924,0.283176 -1.7476,0.849528 -0.38835,0.566352 -0.58253,1.510272 -0.58253,2.737368 0,1.227096 0.19418,2.171016 0.58253,2.83176 0.38836,0.566352 0.97089,0.94392 1.7476,0.94392 0.48545,0 0.8738,-0.09439 1.26216,-0.377568 h 0.0971 c 0.0971,0 0.19418,0.09439 0.29127,0.188784 0.0971,0.09439 0.0971,0.283176 0.0971,0.47196 0,0.09439 0,0.188784 -0.0971,0.283176 -0.0971,0.09439 -0.0971,0.09439 -0.29127,0.188784 -0.19418,0.09439 -0.38836,0.09439 -0.58253,0.188784 -0.29127,0.09439 -0.58254,0.09439 -0.87381,0.09439 -1.16506,0.09439 -2.03886,-0.283176 -2.6214,-1.038312"
       class="st2" /><path
       style="fill:#000000;stroke-width:0.95731"
       id="path56"
       d="m 130.97306,76.174344 c -0.0971,-0.09439 -0.0971,-0.188784 -0.0971,-0.283176 v -8.49528 c 0,-0.188784 0.19418,-0.283176 0.48545,-0.283176 h 0.19417 c 0.38836,0 0.48545,0.09439 0.48545,0.283176 v 7.928928 h 2.81558 c 0.0971,0 0.19418,0 0.19418,0.09439 0,0.09439 0.0971,0.188784 0.0971,0.283176 v 0.188784 c 0,0.09439 0,0.283176 -0.0971,0.283176 0,0.09439 -0.0971,0.09439 -0.19418,0.09439 h -3.68938 c 0,0 -0.0971,0 -0.19418,-0.09439"
       class="st2" /><path
       style="fill:#000000;stroke-width:0.95731"
       id="path58"
       d="m 139.90525,72.870624 -0.97089,-3.586896 c 0,-0.09439 -0.0971,-0.377568 -0.19418,-0.849528 h -0.0971 c 0,0.09439 0,0.188784 -0.0971,0.283176 l -0.0971,0.47196 -0.97089,3.586896 z m -4.27192,3.114936 v -0.188784 l 2.42723,-8.589672 c 0.0971,-0.188784 0.19418,-0.283176 0.58253,-0.283176 h 0.38836 c 0.29127,0 0.48544,0.09439 0.58253,0.283176 l 2.42723,8.589672 v 0.188784 c 0,0.09439 0,0.09439 -0.0971,0.188784 -0.0971,0 -0.19418,0.09439 -0.38836,0.09439 h -0.19418 c -0.29126,0 -0.48544,-0.09439 -0.48544,-0.188784 l -0.58253,-2.171016 h -2.91268 l -0.58253,2.171016 c 0,0.09439 -0.19418,0.188784 -0.48544,0.188784 h -0.19418 c -0.38836,0 -0.48545,-0.09439 -0.48545,-0.283176"
       class="st2" /><path
       style="fill:#000000;stroke-width:0.95731"
       id="path60"
       d="m 142.72083,75.702384 c -0.0971,0 -0.0971,-0.09439 0,0 -0.0971,-0.09439 -0.0971,-0.188784 -0.0971,-0.283176 0,-0.188784 0,-0.283176 0.0971,-0.47196 0.0971,-0.188784 0.0971,-0.283176 0.19418,-0.283176 h 0.0971 c 0.48544,0.377568 1.16506,0.566352 1.84469,0.566352 0.48544,0 0.8738,-0.09439 1.16507,-0.377568 0.29126,-0.283176 0.48544,-0.660744 0.48544,-1.132704 0,-0.377568 -0.0971,-0.755136 -0.38836,-0.94392 -0.29126,-0.188784 -0.58253,-0.47196 -1.06797,-0.660744 -0.48545,-0.283176 -0.97089,-0.47196 -1.26216,-0.660744 -0.29127,-0.188784 -0.58254,-0.47196 -0.77671,-0.755136 -0.19418,-0.283176 -0.29127,-0.755136 -0.29127,-1.227096 0,-0.755136 0.29127,-1.41588 0.77671,-1.88784 0.48545,-0.47196 1.16507,-0.660744 2.03887,-0.660744 0.67962,0 1.16507,0.09439 1.65051,0.377568 0.0971,0 0.0971,0.09439 0.0971,0.188784 0,0.09439 0,0.283176 -0.0971,0.47196 -0.0971,0.188784 -0.19417,0.283176 -0.29126,0.283176 0,0 -0.0971,0 -0.19418,-0.09439 -0.38836,-0.188784 -0.77671,-0.283176 -1.26216,-0.283176 -0.38835,0 -0.77671,0.09439 -1.06798,0.377568 -0.29126,0.283176 -0.48544,0.566352 -0.48544,1.038312 0,0.377568 0.0971,0.755136 0.38835,0.94392 0.29127,0.283176 0.67963,0.47196 1.26216,0.755136 0.48545,0.188784 0.8738,0.47196 1.16507,0.660744 0.29127,0.188784 0.48544,0.47196 0.67962,0.755136 0.19418,0.283176 0.29127,0.755136 0.29127,1.227096 0,0.849528 -0.29127,1.510272 -0.77671,1.982232 -0.48545,0.47196 -1.16507,0.660744 -2.03887,0.660744 -0.77671,0 -1.55343,-0.188784 -2.13596,-0.566352"
       class="st2" /><path
       style="fill:#000000;stroke-width:0.95731"
       id="path62"
       d="m 154.56569,72.870624 -0.97089,-3.586896 c 0,-0.09439 -0.0971,-0.377568 -0.19418,-0.849528 0,0.09439 0,0.188784 -0.0971,0.283176 l -0.0971,0.47196 -0.97089,3.586896 z m -4.36901,3.114936 v -0.188784 l 2.42723,-8.589672 c 0.0971,-0.188784 0.19418,-0.283176 0.58253,-0.283176 h 0.38836 c 0.29126,0 0.48544,0.09439 0.58253,0.283176 l 2.42723,8.589672 v 0.188784 c 0,0.09439 0,0.09439 -0.0971,0.188784 -0.0971,0 -0.19418,0.09439 -0.38836,0.09439 h -0.19418 c -0.29126,0 -0.48544,-0.09439 -0.48544,-0.188784 l -0.58254,-2.171016 h -2.91267 l -0.58253,2.171016 c 0,0.09439 -0.19418,0.188784 -0.48544,0.188784 h -0.19418 c -0.38836,0 -0.48545,-0.09439 -0.48545,-0.283176"
       class="st2" /><path
       style="fill:#000000;stroke-width:0.95731"
       id="path64"
       d="m 157.28418,75.702384 c -0.0971,0 -0.0971,-0.09439 0,0 l -0.0971,-0.283176 c 0,-0.188784 0,-0.283176 0.0971,-0.47196 0.0971,-0.188784 0.0971,-0.283176 0.19418,-0.283176 h 0.0971 c 0.48544,0.377568 1.16506,0.566352 1.84469,0.566352 0.48544,0 0.8738,-0.09439 1.16507,-0.377568 0.29126,-0.283176 0.48544,-0.660744 0.48544,-1.132704 0,-0.377568 -0.0971,-0.755136 -0.38836,-0.94392 -0.19417,-0.188784 -0.58253,-0.47196 -1.06797,-0.660744 -0.48545,-0.283176 -0.97089,-0.47196 -1.26216,-0.660744 -0.29127,-0.188784 -0.58254,-0.47196 -0.77671,-0.755136 -0.19418,-0.283176 -0.29127,-0.755136 -0.29127,-1.227096 0,-0.755136 0.29127,-1.41588 0.77671,-1.88784 0.48545,-0.47196 1.16507,-0.660744 2.03887,-0.660744 0.67962,0 1.16507,0.09439 1.65051,0.377568 0.0971,0 0.0971,0.09439 0.0971,0.188784 0,0.09439 0,0.283176 -0.0971,0.47196 -0.0971,0.188784 -0.19417,0.283176 -0.29126,0.283176 0,0 -0.0971,0 -0.19418,-0.09439 -0.38836,-0.188784 -0.77671,-0.283176 -1.26216,-0.283176 -0.38835,0 -0.77671,0.09439 -1.06798,0.377568 -0.29126,0.283176 -0.48544,0.566352 -0.48544,1.038312 0,0.377568 0.0971,0.755136 0.38835,0.94392 0.29127,0.283176 0.67963,0.47196 1.26216,0.755136 0.48545,0.188784 0.8738,0.47196 1.16507,0.660744 0.29127,0.188784 0.48544,0.47196 0.67962,0.755136 0.19418,0.283176 0.29127,0.755136 0.29127,1.227096 0,0.849528 -0.29127,1.510272 -0.77671,1.982232 -0.48545,0.47196 -1.16507,0.660744 -2.03887,0.660744 -0.77671,0 -1.55343,-0.188784 -2.13596,-0.566352"
       class="st2" /><path
       style="fill:#000000;stroke-width:0.95731"
       id="path66"
       d="m 163.78914,75.98556 v -8.49528 c 0,-0.09439 0,-0.283176 0.0971,-0.283176 0.0971,0 0.19418,-0.09439 0.29127,-0.09439 h 3.4952 c 0.19418,0 0.29127,0.09439 0.29127,0.377568 v 0.188784 c 0,0.283176 -0.0971,0.377568 -0.29127,0.377568 h -2.71849 v 3.020544 h 2.42723 c 0.19417,0 0.29126,0.09439 0.29126,0.377568 v 0.188784 c 0,0.283176 -0.0971,0.377568 -0.29126,0.377568 h -2.42723 v 4.058856 c 0,0.188784 -0.19418,0.283176 -0.48544,0.283176 h -0.19418 c -0.38836,-0.09439 -0.48545,-0.188784 -0.48545,-0.377568"
       class="st2" /><path
       class="st2"
       d="m 171.27,66.169 c 0,-0.09439 0.0971,-0.18878 0.19417,-0.47196 0.0971,-0.28318 0.29127,-0.56636 0.48545,-1.0383 0.0971,-0.18878 0.38836,-0.37757 0.77671,-0.37757 h 0.38836 c 0.0971,0 0.0971,0.09439 0.0971,0.09439 0,0.09439 0,0.09439 -0.0971,0.28318 -0.0971,0.09439 -0.19418,0.28318 -0.38836,0.47196 l -0.58253,0.75514 c -0.0971,0.18878 -0.29127,0.28318 -0.67963,0.28318 -0.0971,0.09439 -0.19417,0.09439 -0.19417,0 m 1.3592,6.7019 -0.97089,-3.5869 c 0,-0.09439 -0.0971,-0.37757 -0.19418,-0.84953 h -0.0971 c 0,0.09439 0,0.18878 -0.0971,0.28318 l -0.0971,0.47196 -0.97089,3.5869 z m -4.2719,3.2093 v -0.18878 l 2.4272,-8.5897 c 0.0971,-0.18878 0.19418,-0.28318 0.58254,-0.28318 h 0.38835 c 0.29127,0 0.48545,0.09439 0.58254,0.28318 l 2.4272,8.5897 v 0.18878 c 0,0.09439 0,0.09439 -0.0971,0.18878 -0.0971,0 -0.19418,0.09439 -0.38835,0.09439 h -0.19418 c -0.29127,0 -0.48545,-0.09439 -0.48545,-0.18878 l -0.58253,-2.171 h -2.9127 l -0.58254,2.171 c 0,0.09439 -0.19418,0.18878 -0.48544,0.18878 h -0.19418 C 168.55139,76.269 168.35721,76.269 168.35721,76.08021"
       id="path70"
       style="fill:#000000;stroke-width:0.95731" /><path
       style="fill:#000000;stroke-width:0.95731"
       id="path72"
       d="m 176.11945,76.174344 c -0.0971,-0.09439 -0.0971,-0.188784 -0.0971,-0.283176 v -8.49528 c 0,-0.188784 0.19417,-0.283176 0.48544,-0.283176 h 0.19418 c 0.38836,0 0.48545,0.09439 0.48545,0.283176 v 7.928928 h 2.81558 c 0.0971,0 0.19417,0 0.19417,0.09439 0,0.09439 0.0971,0.188784 0.0971,0.283176 v 0.188784 c 0,0.09439 0,0.283176 -0.0971,0.283176 0,0.09439 -0.0971,0.09439 -0.19417,0.09439 h -3.68939 c -0.0971,0 -0.19417,0 -0.19417,-0.09439"
       class="st2" /><path
       style="fill:#000000;stroke-width:0.95731"
       id="path74"
       d="m 182.13896,75.98556 v -7.928928 h -1.94178 c -0.19417,0 -0.29126,-0.09439 -0.29126,-0.377568 V 67.49028 c 0,-0.283176 0.0971,-0.377568 0.29126,-0.377568 h 5.14572 c 0.0971,0 0.19418,0 0.19418,0.09439 0,0.09439 0.0971,0.188784 0.0971,0.283176 v 0.188784 c 0,0.09439 0,0.283176 -0.0971,0.283176 0,0.09439 -0.0971,0.09439 -0.19418,0.09439 h -1.94178 v 7.928928 c 0,0.188784 -0.19418,0.283176 -0.48544,0.283176 h -0.19418 c -0.48545,0 -0.58254,-0.09439 -0.58254,-0.283176"
       class="st2" /><path
       style="fill:#000000;stroke-width:0.95731"
       id="path76"
       d="m 186.99341,75.98556 v -8.589672 c 0,-0.188784 0.19418,-0.283176 0.48545,-0.283176 h 0.19418 c 0.29126,0 0.48544,0.09439 0.48544,0.283176 v 8.589672 c 0,0.188784 -0.19418,0.283176 -0.48544,0.283176 h -0.29127 c -0.29127,0 -0.38836,-0.09439 -0.38836,-0.283176"
       class="st2" /><path
       style="fill:#000000;stroke-width:0.95731"
       id="path78"
       d="m 190.77988,75.230424 c -0.58253,-0.755136 -0.8738,-1.982232 -0.8738,-3.586896 0,-1.604664 0.29127,-2.737368 0.8738,-3.586896 0.58254,-0.755136 1.45634,-1.132704 2.7185,-1.132704 0.29126,0 0.48544,0 0.77671,0.09439 0.29127,0 0.48544,0.09439 0.58253,0.188784 0.0971,0 0.19418,0.09439 0.19418,0.09439 v 0.188784 c 0,0.188784 0,0.283176 -0.0971,0.47196 -0.0971,0.188784 -0.19418,0.283176 -0.29127,0.188784 -0.38835,-0.188784 -0.77671,-0.283176 -1.16506,-0.283176 -0.77672,0 -1.35925,0.283176 -1.74761,0.849528 -0.38835,0.566352 -0.58253,1.510272 -0.58253,2.737368 0,1.227096 0.19418,2.171016 0.58253,2.83176 0.38836,0.566352 0.97089,0.94392 1.74761,0.94392 0.48544,0 0.8738,-0.09439 1.26215,-0.377568 h 0.0971 c 0.0971,0 0.19418,0.09439 0.29127,0.188784 0.0971,0.09439 0.0971,0.283176 0.0971,0.47196 0,0.09439 0,0.188784 -0.0971,0.283176 -0.0971,0.09439 -0.0971,0.09439 -0.29127,0.188784 -0.19417,0.09439 -0.38835,0.09439 -0.58253,0.188784 -0.29127,0.09439 -0.58253,0.09439 -0.8738,0.09439 -1.16507,0.09439 -2.03887,-0.283176 -2.6214,-1.038312"
       class="st2" /><path
       style="fill:#000000;stroke-width:0.95731"
       id="path80"
       d="m 200.10043,72.870624 -0.97089,-3.586896 c 0,-0.09439 -0.0971,-0.377568 -0.19418,-0.849528 h -0.0971 c 0,0.09439 0,0.188784 -0.0971,0.283176 l -0.0971,0.47196 -0.97089,3.586896 z m -4.4661,3.114936 v -0.188784 l 2.42723,-8.589672 c 0.0971,-0.188784 0.19418,-0.283176 0.58253,-0.283176 h 0.38836 c 0.29127,0 0.48544,0.09439 0.58253,0.283176 l 2.42723,8.589672 v 0.188784 c 0,0.09439 0,0.09439 -0.0971,0.188784 -0.0971,0 -0.19418,0.09439 -0.38836,0.09439 h -0.19417 c -0.29127,0 -0.48545,-0.09439 -0.48545,-0.188784 l -0.58253,-2.171016 h -2.91267 l -0.58254,2.171016 c 0,0.09439 -0.19417,0.188784 -0.48544,0.188784 h -0.19418 c -0.29127,0 -0.48545,-0.09439 -0.48545,-0.283176"
       class="st2" /><path
       style="fill:#000000;stroke-width:0.95731"
       id="path82"
       d="m 202.91601,75.702384 c -0.0971,0 -0.0971,-0.09439 0,0 l -0.0971,-0.283176 c 0,-0.188784 0,-0.283176 0.0971,-0.47196 0.0971,-0.188784 0.0971,-0.283176 0.19418,-0.283176 h 0.0971 c 0.48544,0.377568 1.16506,0.566352 1.84469,0.566352 0.48544,0 0.8738,-0.09439 1.16507,-0.377568 0.29126,-0.283176 0.48544,-0.660744 0.48544,-1.132704 0,-0.377568 -0.0971,-0.755136 -0.38836,-0.94392 -0.19417,-0.188784 -0.58253,-0.47196 -1.06797,-0.660744 -0.48545,-0.283176 -0.97089,-0.47196 -1.26216,-0.660744 -0.29127,-0.188784 -0.58254,-0.47196 -0.77671,-0.755136 -0.19418,-0.283176 -0.29127,-0.755136 -0.29127,-1.227096 0,-0.755136 0.29127,-1.41588 0.77671,-1.88784 0.48545,-0.47196 1.16507,-0.660744 2.03887,-0.660744 0.67962,0 1.16507,0.09439 1.65051,0.377568 0.0971,0 0.0971,0.09439 0.0971,0.188784 0,0.09439 0,0.283176 -0.0971,0.47196 -0.0971,0.188784 -0.19417,0.283176 -0.29126,0.283176 0,0 -0.0971,0 -0.19418,-0.09439 -0.38836,-0.188784 -0.77671,-0.283176 -1.26216,-0.283176 -0.38835,0 -0.77671,0.09439 -1.06798,0.377568 -0.29126,0.283176 -0.48544,0.566352 -0.48544,1.038312 0,0.377568 0.0971,0.755136 0.38835,0.94392 0.29127,0.283176 0.67963,0.47196 1.26216,0.755136 0.48545,0.188784 0.8738,0.47196 1.16507,0.660744 0.29127,0.188784 0.48544,0.47196 0.67962,0.755136 0.19418,0.283176 0.29127,0.755136 0.29127,1.227096 0,0.849528 -0.29127,1.510272 -0.77671,1.982232 -0.48545,0.47196 -1.16507,0.660744 -2.03887,0.660744 -0.8738,0 -1.65052,-0.188784 -2.13596,-0.566352"
       class="st2" /><path
       style="fill:#000000;stroke-width:0.95731"
       id="path84"
       d="m 211.16857,76.174344 c -0.0971,-0.09439 -0.0971,-0.188784 -0.0971,-0.283176 V 67.49028 c 0,-0.09439 0,-0.283176 0.0971,-0.283176 0.0971,-0.09439 0.19418,-0.09439 0.29127,-0.09439 h 3.88356 c 0.19418,0 0.29127,0.09439 0.29127,0.377568 v 0.188784 c 0,0.283176 -0.0971,0.377568 -0.29127,0.377568 h -3.10685 v 3.020544 h 2.7185 c 0.19417,0 0.29126,0.09439 0.29126,0.377568 v 0.188784 c 0,0.283176 -0.0971,0.377568 -0.29126,0.377568 h -2.7185 v 3.209328 h 3.10685 c 0.0971,0 0.19418,0 0.19418,0.09439 0,0.09439 0.0971,0.188784 0.0971,0.283176 v 0.188784 c 0,0.09439 0,0.283176 -0.0971,0.283176 -0.0971,0 -0.0971,0.09439 -0.19418,0.09439 h -3.88356 c -0.0971,0.09439 -0.19418,0.09439 -0.29127,0"
       class="st2" /><path
       style="fill:#000000;stroke-width:0.95731"
       id="path86"
       d="m 216.79974,75.702384 c -0.0971,0 -0.0971,-0.09439 0,0 l -0.0971,-0.283176 c 0,-0.188784 0,-0.283176 0.0971,-0.47196 0.0971,-0.188784 0.0971,-0.283176 0.19418,-0.283176 h 0.0971 c 0.48545,0.377568 1.16507,0.566352 1.84469,0.566352 0.48545,0 0.87381,-0.09439 1.16507,-0.377568 0.29127,-0.283176 0.48545,-0.660744 0.48545,-1.132704 0,-0.377568 -0.0971,-0.755136 -0.38836,-0.94392 -0.29127,-0.188784 -0.58253,-0.47196 -1.06798,-0.660744 -0.48544,-0.283176 -0.97089,-0.47196 -1.26215,-0.660744 -0.29127,-0.188784 -0.58254,-0.47196 -0.77672,-0.755136 -0.19417,-0.283176 -0.29126,-0.755136 -0.29126,-1.227096 0,-0.755136 0.29126,-1.41588 0.77671,-1.88784 0.48544,-0.47196 1.16507,-0.660744 2.03887,-0.660744 0.67962,0 1.16507,0.09439 1.65051,0.377568 0.0971,0 0.0971,0.09439 0.0971,0.188784 0,0.09439 0,0.283176 -0.0971,0.47196 -0.0971,0.188784 -0.19418,0.283176 -0.29127,0.283176 0,0 -0.0971,0 -0.19417,-0.09439 -0.38836,-0.188784 -0.77672,-0.283176 -1.26216,-0.283176 -0.38836,0 -0.77671,0.09439 -1.06798,0.377568 -0.29127,0.283176 -0.48545,0.566352 -0.48545,1.038312 0,0.377568 0.0971,0.755136 0.38836,0.94392 0.29127,0.283176 0.67962,0.47196 1.26216,0.755136 0.48544,0.188784 0.8738,0.47196 1.16507,0.660744 0.29126,0.188784 0.48544,0.47196 0.67962,0.755136 0.19418,0.283176 0.29127,0.755136 0.29127,1.227096 0,0.849528 -0.29127,1.510272 -0.77672,1.982232 -0.48544,0.47196 -1.16506,0.660744 -2.03887,0.660744 -0.77671,0 -1.55342,-0.188784 -2.13595,-0.566352"
       class="st2" /><path
       style="fill:#000000;stroke-width:0.95731"
       id="path88"
       d="m 225.73193,71.360352 c 0.29126,0 0.58253,-0.09439 0.77671,-0.377568 0.29126,-0.283176 0.38835,-0.660744 0.38835,-1.321488 0,-0.566352 -0.0971,-1.038312 -0.38835,-1.227096 -0.29127,-0.188784 -0.58254,-0.377568 -0.8738,-0.377568 h -1.35925 v 3.30372 z m -2.62141,4.7196 v -8.49528 c 0,-0.09439 0,-0.283176 0.0971,-0.283176 0.0971,-0.09439 0.19418,-0.09439 0.29127,-0.09439 h 2.23305 c 0.67962,0 1.26215,0.188784 1.7476,0.566352 0.48544,0.377568 0.77671,1.038312 0.77671,2.076624 0,0.755136 -0.0971,1.321488 -0.38836,1.699056 -0.29126,0.377568 -0.58253,0.660744 -0.97089,0.849528 -0.38835,0.09439 -0.67962,0.188784 -0.97089,0.188784 h -1.45633 v 3.681288 c 0,0.188784 -0.19418,0.283176 -0.48545,0.283176 h -0.19417 c -0.48545,-0.188784 -0.67963,-0.283176 -0.67963,-0.47196"
       class="st2" /><path
       style="fill:#000000;stroke-width:0.95731"
       id="path90"
       d="m 229.80966,76.174344 c -0.0971,-0.09439 -0.0971,-0.188784 -0.0971,-0.283176 V 67.49028 c 0,-0.09439 0,-0.283176 0.0971,-0.283176 0.0971,-0.09439 0.19418,-0.09439 0.29127,-0.09439 h 3.88356 c 0.19418,0 0.29127,0.09439 0.29127,0.377568 v 0.188784 c 0,0.283176 -0.0971,0.377568 -0.29127,0.377568 h -3.10685 v 3.020544 h 2.71849 c 0.19418,0 0.29127,0.09439 0.29127,0.377568 v 0.188784 c 0,0.283176 -0.0971,0.377568 -0.29127,0.377568 h -2.71849 v 3.209328 h 3.10685 c 0.0971,0 0.19418,0 0.19418,0.09439 0,0.09439 0.0971,0.188784 0.0971,0.283176 v 0.188784 c 0,0.09439 0,0.283176 -0.0971,0.283176 0,0.09439 -0.0971,0.09439 -0.19418,0.09439 h -3.88356 c -0.19418,0.09439 -0.29127,0.09439 -0.29127,0"
       class="st2" /><path
       style="fill:#000000;stroke-width:0.95731"
       id="path92"
       d="m 236.31463,75.230424 c -0.58254,-0.755136 -0.8738,-1.982232 -0.8738,-3.586896 0,-1.604664 0.29126,-2.737368 0.8738,-3.586896 0.58253,-0.755136 1.45633,-1.132704 2.71849,-1.132704 0.29127,0 0.48544,0 0.77671,0.09439 0.29127,0 0.48545,0.09439 0.58253,0.188784 0.0971,0 0.19418,0.09439 0.19418,0.09439 v 0.188784 c 0,0.188784 0,0.283176 -0.0971,0.47196 -0.0971,0.188784 -0.19417,0.283176 -0.29126,0.188784 -0.38836,-0.188784 -0.77672,-0.283176 -1.16507,-0.283176 -0.77671,0 -1.35925,0.283176 -1.7476,0.849528 -0.38836,0.566352 -0.58254,1.510272 -0.58254,2.737368 0,1.227096 0.19418,2.171016 0.58254,2.83176 0.38835,0.566352 0.97089,0.94392 1.7476,0.94392 0.48544,0 0.8738,-0.09439 1.26216,-0.377568 h 0.0971 c 0.0971,0 0.19418,0.09439 0.29127,0.188784 0.0971,0.09439 0.0971,0.283176 0.0971,0.47196 0,0.09439 0,0.188784 -0.0971,0.283176 -0.0971,0.09439 -0.0971,0.09439 -0.29127,0.188784 -0.19417,0.09439 -0.38835,0.09439 -0.58253,0.188784 -0.29127,0.09439 -0.58253,0.09439 -0.8738,0.09439 -1.16507,0.09439 -2.03887,-0.283176 -2.6214,-1.038312"
       class="st2" /><path
       style="fill:#000000;stroke-width:0.95731"
       id="path94"
       d="m 242.13997,75.98556 v -8.589672 c 0,-0.188784 0.19417,-0.283176 0.48544,-0.283176 h 0.19418 c 0.29127,0 0.48544,0.09439 0.48544,0.283176 v 8.589672 c 0,0.188784 -0.19417,0.283176 -0.48544,0.283176 h -0.19418 c -0.29127,0 -0.48544,-0.09439 -0.48544,-0.283176"
       class="st2" /><path
       style="fill:#000000;stroke-width:0.95731"
       id="path96"
       d="m 249.13037,72.870624 -0.97089,-3.586896 c 0,-0.09439 -0.0971,-0.377568 -0.19417,-0.849528 0,0.09439 0,0.188784 -0.0971,0.283176 l -0.0971,0.47196 -0.97089,3.586896 z m -4.369,3.114936 v -0.188784 l 2.42722,-8.589672 c 0.0971,-0.188784 0.19418,-0.283176 0.58254,-0.283176 h 0.38835 c 0.29127,0 0.48545,0.09439 0.58254,0.283176 l 2.42722,8.589672 v 0.188784 c 0,0.09439 0,0.09439 -0.0971,0.188784 -0.0971,0 -0.19417,0.09439 -0.38835,0.09439 h -0.19418 c -0.29127,0 -0.48545,-0.09439 -0.48545,-0.188784 l -0.58253,-2.171016 h -2.91267 l -0.58253,2.171016 c 0,0.09439 -0.19418,0.188784 -0.48545,0.188784 h -0.19418 c -0.38835,0 -0.48544,-0.09439 -0.48544,-0.283176"
       class="st2" /><path
       style="fill:#000000;stroke-width:0.95731"
       id="path98"
       d="m 252.4314,76.174344 c -0.0971,-0.09439 -0.0971,-0.188784 -0.0971,-0.283176 v -8.49528 c 0,-0.188784 0.19418,-0.283176 0.48545,-0.283176 h 0.19417 c 0.38836,0 0.48545,0.09439 0.48545,0.283176 v 7.928928 h 2.81558 c 0.0971,0 0.19418,0 0.19418,0.09439 0,0.09439 0.0971,0.188784 0.0971,0.283176 v 0.188784 c 0,0.09439 0,0.283176 -0.0971,0.283176 -0.0971,0 -0.0971,0.09439 -0.19418,0.09439 h -3.59229 c -0.0971,0 -0.19418,0 -0.29127,-0.09439"
       class="st2" /><path
       style="fill:#000000;stroke-width:0.95731"
       id="path100"
       d="m 258.06256,76.174344 c -0.0971,-0.09439 -0.0971,-0.188784 -0.0971,-0.283176 V 67.49028 c 0,-0.09439 0,-0.283176 0.0971,-0.283176 0.0971,-0.09439 0.19418,-0.09439 0.29127,-0.09439 h 3.88356 c 0.19418,0 0.29127,0.09439 0.29127,0.377568 v 0.188784 c 0,0.283176 -0.0971,0.377568 -0.29127,0.377568 h -3.00976 v 3.020544 h 2.71849 c 0.19418,0 0.29127,0.09439 0.29127,0.377568 v 0.188784 c 0,0.283176 -0.0971,0.377568 -0.29127,0.377568 h -2.71849 v 3.209328 h 3.00976 c 0.0971,0 0.19418,0 0.19418,0.09439 0,0.09439 0.0971,0.188784 0.0971,0.283176 v 0.188784 c 0,0.09439 0,0.283176 -0.0971,0.283176 0,0.09439 -0.0971,0.09439 -0.19418,0.09439 h -3.88356 c -0.19418,0.09439 -0.29127,0.09439 -0.29127,0"
       class="st2" /><path
       style="fill:#000000;stroke-width:0.95731"
       id="path102"
       d="m 263.69372,75.702384 c -0.0971,0 -0.0971,-0.09439 0,0 l -0.0971,-0.283176 c 0,-0.188784 0,-0.283176 0.0971,-0.47196 0.0971,-0.188784 0.0971,-0.283176 0.19418,-0.283176 h 0.0971 c 0.48545,0.377568 1.16507,0.566352 1.84469,0.566352 0.48545,0 0.8738,-0.09439 1.16507,-0.377568 0.29127,-0.283176 0.48544,-0.660744 0.48544,-1.132704 0,-0.377568 -0.0971,-0.755136 -0.38835,-0.94392 -0.19418,-0.188784 -0.58254,-0.47196 -1.06798,-0.660744 -0.48545,-0.283176 -0.97089,-0.47196 -1.26216,-0.660744 -0.29126,-0.188784 -0.58253,-0.47196 -0.77671,-0.755136 -0.19418,-0.283176 -0.29127,-0.755136 -0.29127,-1.227096 0,-0.755136 0.29127,-1.41588 0.77672,-1.88784 0.48544,-0.47196 1.16506,-0.660744 2.03886,-0.660744 0.67963,0 1.16507,0.09439 1.65052,0.377568 0.0971,0 0.0971,0.09439 0.0971,0.188784 0,0.09439 0,0.283176 -0.0971,0.47196 -0.0971,0.188784 -0.19418,0.283176 -0.29127,0.283176 0,0 -0.0971,0 -0.19418,-0.09439 -0.38835,-0.188784 -0.77671,-0.283176 -1.26215,-0.283176 -0.38836,0 -0.77672,0.09439 -1.06798,0.377568 -0.29127,0.283176 -0.48545,0.566352 -0.48545,1.038312 0,0.377568 0.0971,0.755136 0.38836,0.94392 0.29126,0.283176 0.67962,0.47196 1.26215,0.755136 0.48545,0.188784 0.87381,0.47196 1.16507,0.660744 0.29127,0.188784 0.48545,0.47196 0.67963,0.755136 0.19417,0.283176 0.29126,0.755136 0.29126,1.227096 0,0.849528 -0.29126,1.510272 -0.77671,1.982232 -0.48544,0.47196 -1.16507,0.660744 -2.03887,0.660744 -0.8738,0 -1.55342,-0.188784 -2.13596,-0.566352"
       class="st2" /></g></svg>
